<mxfile host="app.diagrams.net" modified="2021-05-18T12:54:21.467Z" agent="5.0 (Macintosh; Intel Mac OS X 10_15_7) AppleWebKit/537.36 (KHTML, like Gecko) Chrome/90.0.4430.212 Safari/537.36" etag="cywGYxiTM9bKM9hdCRYG" version="14.6.13" type="github">
  <diagram name="Page-1" id="099fd60b-425b-db50-ffb0-6b813814b670">
    <mxGraphModel dx="946" dy="613" grid="1" gridSize="10" guides="1" tooltips="1" connect="1" arrows="1" fold="1" page="1" pageScale="1" pageWidth="850" pageHeight="1100" background="#ffffff" math="0" shadow="0">
      <root>
        <mxCell id="0" />
        <mxCell id="1" parent="0" />
        <mxCell id="wJ1mTr-c0H7NAqucb8bx-1" value="" style="shape=table;html=1;whiteSpace=wrap;startSize=0;container=1;collapsible=0;childLayout=tableLayout;" vertex="1" parent="1">
          <mxGeometry x="110" y="180" width="60" height="240" as="geometry" />
        </mxCell>
        <mxCell id="wJ1mTr-c0H7NAqucb8bx-2" value="" style="shape=partialRectangle;html=1;whiteSpace=wrap;collapsible=0;dropTarget=0;pointerEvents=0;fillColor=none;top=0;left=0;bottom=0;right=0;points=[[0,0.5],[1,0.5]];portConstraint=eastwest;" vertex="1" parent="wJ1mTr-c0H7NAqucb8bx-1">
          <mxGeometry width="60" height="40" as="geometry" />
        </mxCell>
        <mxCell id="wJ1mTr-c0H7NAqucb8bx-3" value="1" style="shape=partialRectangle;html=1;whiteSpace=wrap;connectable=0;fillColor=none;top=0;left=0;bottom=0;right=0;overflow=hidden;" vertex="1" parent="wJ1mTr-c0H7NAqucb8bx-2">
          <mxGeometry width="60" height="40" as="geometry" />
        </mxCell>
        <mxCell id="wJ1mTr-c0H7NAqucb8bx-6" value="" style="shape=partialRectangle;html=1;whiteSpace=wrap;collapsible=0;dropTarget=0;pointerEvents=0;fillColor=none;top=0;left=0;bottom=0;right=0;points=[[0,0.5],[1,0.5]];portConstraint=eastwest;" vertex="1" parent="wJ1mTr-c0H7NAqucb8bx-1">
          <mxGeometry y="40" width="60" height="40" as="geometry" />
        </mxCell>
        <mxCell id="wJ1mTr-c0H7NAqucb8bx-7" value="8" style="shape=partialRectangle;html=1;whiteSpace=wrap;connectable=0;fillColor=none;top=0;left=0;bottom=0;right=0;overflow=hidden;" vertex="1" parent="wJ1mTr-c0H7NAqucb8bx-6">
          <mxGeometry width="60" height="40" as="geometry" />
        </mxCell>
        <mxCell id="wJ1mTr-c0H7NAqucb8bx-10" value="" style="shape=partialRectangle;html=1;whiteSpace=wrap;collapsible=0;dropTarget=0;pointerEvents=0;fillColor=none;top=0;left=0;bottom=0;right=0;points=[[0,0.5],[1,0.5]];portConstraint=eastwest;" vertex="1" parent="wJ1mTr-c0H7NAqucb8bx-1">
          <mxGeometry y="80" width="60" height="40" as="geometry" />
        </mxCell>
        <mxCell id="wJ1mTr-c0H7NAqucb8bx-11" value="6999" style="shape=partialRectangle;html=1;whiteSpace=wrap;connectable=0;fillColor=none;top=0;left=0;bottom=0;right=0;overflow=hidden;" vertex="1" parent="wJ1mTr-c0H7NAqucb8bx-10">
          <mxGeometry width="60" height="40" as="geometry" />
        </mxCell>
        <mxCell id="wJ1mTr-c0H7NAqucb8bx-18" style="shape=partialRectangle;html=1;whiteSpace=wrap;collapsible=0;dropTarget=0;pointerEvents=0;fillColor=none;top=0;left=0;bottom=0;right=0;points=[[0,0.5],[1,0.5]];portConstraint=eastwest;" vertex="1" parent="wJ1mTr-c0H7NAqucb8bx-1">
          <mxGeometry y="120" width="60" height="40" as="geometry" />
        </mxCell>
        <mxCell id="wJ1mTr-c0H7NAqucb8bx-19" value="...." style="shape=partialRectangle;html=1;whiteSpace=wrap;connectable=0;fillColor=none;top=0;left=0;bottom=0;right=0;overflow=hidden;" vertex="1" parent="wJ1mTr-c0H7NAqucb8bx-18">
          <mxGeometry width="60" height="40" as="geometry" />
        </mxCell>
        <mxCell id="wJ1mTr-c0H7NAqucb8bx-16" style="shape=partialRectangle;html=1;whiteSpace=wrap;collapsible=0;dropTarget=0;pointerEvents=0;fillColor=none;top=0;left=0;bottom=0;right=0;points=[[0,0.5],[1,0.5]];portConstraint=eastwest;" vertex="1" parent="wJ1mTr-c0H7NAqucb8bx-1">
          <mxGeometry y="160" width="60" height="40" as="geometry" />
        </mxCell>
        <mxCell id="wJ1mTr-c0H7NAqucb8bx-17" value="145678" style="shape=partialRectangle;html=1;whiteSpace=wrap;connectable=0;fillColor=none;top=0;left=0;bottom=0;right=0;overflow=hidden;" vertex="1" parent="wJ1mTr-c0H7NAqucb8bx-16">
          <mxGeometry width="60" height="40" as="geometry" />
        </mxCell>
        <mxCell id="wJ1mTr-c0H7NAqucb8bx-14" style="shape=partialRectangle;html=1;whiteSpace=wrap;collapsible=0;dropTarget=0;pointerEvents=0;fillColor=none;top=0;left=0;bottom=0;right=0;points=[[0,0.5],[1,0.5]];portConstraint=eastwest;" vertex="1" parent="wJ1mTr-c0H7NAqucb8bx-1">
          <mxGeometry y="200" width="60" height="40" as="geometry" />
        </mxCell>
        <mxCell id="wJ1mTr-c0H7NAqucb8bx-15" value="..." style="shape=partialRectangle;html=1;whiteSpace=wrap;connectable=0;fillColor=none;top=0;left=0;bottom=0;right=0;overflow=hidden;" vertex="1" parent="wJ1mTr-c0H7NAqucb8bx-14">
          <mxGeometry width="60" height="40" as="geometry" />
        </mxCell>
        <mxCell id="wJ1mTr-c0H7NAqucb8bx-20" value="" style="shape=table;html=1;whiteSpace=wrap;startSize=0;container=1;collapsible=0;childLayout=tableLayout;" vertex="1" parent="1">
          <mxGeometry x="230" y="220" width="300" height="40" as="geometry" />
        </mxCell>
        <mxCell id="wJ1mTr-c0H7NAqucb8bx-21" value="" style="shape=partialRectangle;html=1;whiteSpace=wrap;collapsible=0;dropTarget=0;pointerEvents=0;fillColor=none;top=0;left=0;bottom=0;right=0;points=[[0,0.5],[1,0.5]];portConstraint=eastwest;" vertex="1" parent="wJ1mTr-c0H7NAqucb8bx-20">
          <mxGeometry width="300" height="40" as="geometry" />
        </mxCell>
        <mxCell id="wJ1mTr-c0H7NAqucb8bx-22" value="1" style="shape=partialRectangle;html=1;whiteSpace=wrap;connectable=0;fillColor=none;top=0;left=0;bottom=0;right=0;overflow=hidden;" vertex="1" parent="wJ1mTr-c0H7NAqucb8bx-21">
          <mxGeometry width="60" height="40" as="geometry" />
        </mxCell>
        <mxCell id="wJ1mTr-c0H7NAqucb8bx-23" value="2" style="shape=partialRectangle;html=1;whiteSpace=wrap;connectable=0;fillColor=none;top=0;left=0;bottom=0;right=0;overflow=hidden;" vertex="1" parent="wJ1mTr-c0H7NAqucb8bx-21">
          <mxGeometry x="60" width="60" height="40" as="geometry" />
        </mxCell>
        <mxCell id="wJ1mTr-c0H7NAqucb8bx-24" value="..." style="shape=partialRectangle;html=1;whiteSpace=wrap;connectable=0;fillColor=none;top=0;left=0;bottom=0;right=0;overflow=hidden;" vertex="1" parent="wJ1mTr-c0H7NAqucb8bx-21">
          <mxGeometry x="120" width="60" height="40" as="geometry" />
        </mxCell>
        <mxCell id="wJ1mTr-c0H7NAqucb8bx-33" value="88" style="shape=partialRectangle;html=1;whiteSpace=wrap;connectable=0;fillColor=none;top=0;left=0;bottom=0;right=0;overflow=hidden;" vertex="1" parent="wJ1mTr-c0H7NAqucb8bx-21">
          <mxGeometry x="180" width="60" height="40" as="geometry" />
        </mxCell>
        <mxCell id="wJ1mTr-c0H7NAqucb8bx-34" value="..." style="shape=partialRectangle;html=1;whiteSpace=wrap;connectable=0;fillColor=none;top=0;left=0;bottom=0;right=0;overflow=hidden;" vertex="1" parent="wJ1mTr-c0H7NAqucb8bx-21">
          <mxGeometry x="240" width="60" height="40" as="geometry" />
        </mxCell>
        <mxCell id="wJ1mTr-c0H7NAqucb8bx-35" value="" style="shape=table;html=1;whiteSpace=wrap;startSize=0;container=1;collapsible=0;childLayout=tableLayout;" vertex="1" parent="1">
          <mxGeometry x="230" y="340" width="300" height="40" as="geometry" />
        </mxCell>
        <mxCell id="wJ1mTr-c0H7NAqucb8bx-36" value="" style="shape=partialRectangle;html=1;whiteSpace=wrap;collapsible=0;dropTarget=0;pointerEvents=0;fillColor=none;top=0;left=0;bottom=0;right=0;points=[[0,0.5],[1,0.5]];portConstraint=eastwest;" vertex="1" parent="wJ1mTr-c0H7NAqucb8bx-35">
          <mxGeometry width="300" height="40" as="geometry" />
        </mxCell>
        <mxCell id="wJ1mTr-c0H7NAqucb8bx-37" value="1" style="shape=partialRectangle;html=1;whiteSpace=wrap;connectable=0;fillColor=none;top=0;left=0;bottom=0;right=0;overflow=hidden;" vertex="1" parent="wJ1mTr-c0H7NAqucb8bx-36">
          <mxGeometry width="60" height="40" as="geometry" />
        </mxCell>
        <mxCell id="wJ1mTr-c0H7NAqucb8bx-38" value="0" style="shape=partialRectangle;html=1;whiteSpace=wrap;connectable=0;fillColor=none;top=0;left=0;bottom=0;right=0;overflow=hidden;" vertex="1" parent="wJ1mTr-c0H7NAqucb8bx-36">
          <mxGeometry x="60" width="60" height="40" as="geometry" />
        </mxCell>
        <mxCell id="wJ1mTr-c0H7NAqucb8bx-39" value="..." style="shape=partialRectangle;html=1;whiteSpace=wrap;connectable=0;fillColor=none;top=0;left=0;bottom=0;right=0;overflow=hidden;" vertex="1" parent="wJ1mTr-c0H7NAqucb8bx-36">
          <mxGeometry x="120" width="60" height="40" as="geometry" />
        </mxCell>
        <mxCell id="wJ1mTr-c0H7NAqucb8bx-40" value="1" style="shape=partialRectangle;html=1;whiteSpace=wrap;connectable=0;fillColor=none;top=0;left=0;bottom=0;right=0;overflow=hidden;" vertex="1" parent="wJ1mTr-c0H7NAqucb8bx-36">
          <mxGeometry x="180" width="60" height="40" as="geometry" />
        </mxCell>
        <mxCell id="wJ1mTr-c0H7NAqucb8bx-41" value="..." style="shape=partialRectangle;html=1;whiteSpace=wrap;connectable=0;fillColor=none;top=0;left=0;bottom=0;right=0;overflow=hidden;" vertex="1" parent="wJ1mTr-c0H7NAqucb8bx-36">
          <mxGeometry x="240" width="60" height="40" as="geometry" />
        </mxCell>
        <mxCell id="wJ1mTr-c0H7NAqucb8bx-42" style="edgeStyle=orthogonalEdgeStyle;rounded=0;orthogonalLoop=1;jettySize=auto;html=1;exitX=1;exitY=0.5;exitDx=0;exitDy=0;entryX=0;entryY=0.5;entryDx=0;entryDy=0;" edge="1" parent="1" source="wJ1mTr-c0H7NAqucb8bx-6" target="wJ1mTr-c0H7NAqucb8bx-21">
          <mxGeometry relative="1" as="geometry" />
        </mxCell>
        <mxCell id="wJ1mTr-c0H7NAqucb8bx-43" style="edgeStyle=orthogonalEdgeStyle;rounded=0;orthogonalLoop=1;jettySize=auto;html=1;exitX=1;exitY=0.5;exitDx=0;exitDy=0;entryX=0;entryY=0.5;entryDx=0;entryDy=0;" edge="1" parent="1" source="wJ1mTr-c0H7NAqucb8bx-16" target="wJ1mTr-c0H7NAqucb8bx-36">
          <mxGeometry relative="1" as="geometry" />
        </mxCell>
        <mxCell id="wJ1mTr-c0H7NAqucb8bx-44" value="Container Array" style="text;html=1;align=center;verticalAlign=middle;resizable=0;points=[];autosize=1;strokeColor=none;" vertex="1" parent="1">
          <mxGeometry x="90" y="150" width="100" height="20" as="geometry" />
        </mxCell>
        <mxCell id="wJ1mTr-c0H7NAqucb8bx-45" value="Array Container" style="text;html=1;align=center;verticalAlign=middle;resizable=0;points=[];autosize=1;strokeColor=none;" vertex="1" parent="1">
          <mxGeometry x="550" y="230" width="100" height="20" as="geometry" />
        </mxCell>
        <mxCell id="wJ1mTr-c0H7NAqucb8bx-46" value="Bitmap Container" style="text;html=1;align=center;verticalAlign=middle;resizable=0;points=[];autosize=1;strokeColor=none;" vertex="1" parent="1">
          <mxGeometry x="550" y="350" width="110" height="20" as="geometry" />
        </mxCell>
      </root>
    </mxGraphModel>
  </diagram>
</mxfile>
